<svg preserveAspectRatio="none" width="100%" height="100%" overflow="visible" style="display: block;" viewBox="0 0 16 16" fill="none" xmlns="http://www.w3.org/2000/svg">
<g id="icon">
<path id="Vector" d="M4.66667 12H10C10.3667 12 10.6806 11.8694 10.9417 11.6083C11.2028 11.3472 11.3333 11.0333 11.3333 10.6667V8.66667H3.33333V10.6667C3.33333 11.0333 3.46389 11.3472 3.725 11.6083C3.98611 11.8694 4.3 12 4.66667 12ZM5.70833 11.0417C5.90278 10.8472 6 10.6111 6 10.3333C6 10.0556 5.90278 9.81944 5.70833 9.625C5.51389 9.43056 5.27778 9.33333 5 9.33333C4.72222 9.33333 4.48611 9.43056 4.29167 9.625C4.09722 9.81944 4 10.0556 4 10.3333C4 10.6111 4.09722 10.8472 4.29167 11.0417C4.48611 11.2361 4.72222 11.3333 5 11.3333C5.27778 11.3333 5.51389 11.2361 5.70833 11.0417ZM10.375 11.0417C10.5694 10.8472 10.6667 10.6111 10.6667 10.3333C10.6667 10.0556 10.5694 9.81944 10.375 9.625C10.1806 9.43056 9.94444 9.33333 9.66667 9.33333C9.38889 9.33333 9.15278 9.43056 8.95833 9.625C8.76389 9.81944 8.66667 10.0556 8.66667 10.3333C8.66667 10.6111 8.76389 10.8472 8.95833 11.0417C9.15278 11.2361 9.38889 11.3333 9.66667 11.3333C9.94444 11.3333 10.1806 11.2361 10.375 11.0417ZM3.33333 14.6667C3.14444 14.6667 2.98611 14.6028 2.85833 14.475C2.73056 14.3472 2.66667 14.1889 2.66667 14V12.6333C2.46667 12.4111 2.30556 12.1639 2.18333 11.8917C2.06111 11.6194 2 11.3222 2 11V4.66667C2 3.74444 2.42778 3.06944 3.28333 2.64167C4.13889 2.21389 5.48889 2 7.33333 2H7.79167C7.94167 2 8.08889 2.00556 8.23333 2.01667C8.41111 2.02778 8.55556 2.10278 8.66667 2.24167C8.77778 2.38056 8.81667 2.53889 8.78333 2.71667C8.75 2.90556 8.65833 3.05833 8.50833 3.175C8.35833 3.29167 8.18889 3.34444 8 3.33333H7.36667C6.4 3.33333 5.6 3.38889 4.96667 3.5C4.33333 3.61111 3.88889 3.77778 3.63333 4H8.3C8.48889 4 8.64722 4.06389 8.775 4.19167C8.90278 4.31944 8.96667 4.47778 8.96667 4.66667C8.96667 4.85556 8.90278 5.01389 8.775 5.14167C8.64722 5.26944 8.48889 5.33333 8.3 5.33333H3.33333V7.33333H11.0333C11.1222 7.33333 11.2028 7.35833 11.275 7.40833C11.3472 7.45833 11.4 7.52778 11.4333 7.61667C11.5333 7.83889 11.6667 8.02778 11.8333 8.18333C12 8.33889 12.1889 8.46111 12.4 8.55C12.4778 8.58333 12.5417 8.63056 12.5917 8.69167C12.6417 8.75278 12.6667 8.82778 12.6667 8.91667V11C12.6667 11.3222 12.6056 11.6194 12.4833 11.8917C12.3611 12.1639 12.2 12.4111 12 12.6333V14C12 14.1889 11.9361 14.3472 11.8083 14.475C11.6806 14.6028 11.5222 14.6667 11.3333 14.6667H10.6667C10.4778 14.6667 10.3194 14.6028 10.1917 14.475C10.0639 14.3472 10 14.1889 10 14V13.3333H4.66667V14C4.66667 14.1889 4.60278 14.3472 4.475 14.475C4.34722 14.6028 4.18889 14.6667 4 14.6667H3.33333ZM12.6833 6C12.1167 5.46667 11.6944 4.98889 11.4167 4.56667C11.1389 4.14444 11 3.75556 11 3.4C11 2.92222 11.1611 2.51389 11.4833 2.175C11.8056 1.83611 12.2 1.66667 12.6667 1.66667C13.1333 1.66667 13.5278 1.83611 13.85 2.175C14.1722 2.51389 14.3333 2.92222 14.3333 3.4C14.3333 3.75556 14.1972 4.14722 13.925 4.575C13.6528 5.00278 13.2389 5.47778 12.6833 6ZM12.6667 0.666667C11.9222 0.666667 11.2917 0.933333 10.775 1.46667C10.2583 2 10 2.64444 10 3.4C10 3.91111 10.1889 4.46389 10.5667 5.05833C10.9444 5.65278 11.5167 6.3 12.2833 7C12.3944 7.1 12.5222 7.14722 12.6667 7.14167C12.8111 7.13611 12.9389 7.08889 13.05 7C13.8167 6.3 14.3889 5.65278 14.7667 5.05833C15.1444 4.46389 15.3333 3.91111 15.3333 3.4C15.3333 2.64444 15.075 2 14.5583 1.46667C14.0417 0.933333 13.4111 0.666667 12.6667 0.666667ZM12.1917 3.80833C12.0639 3.68056 12 3.52222 12 3.33333C12 3.14444 12.0639 2.98611 12.1917 2.85833C12.3194 2.73056 12.4778 2.66667 12.6667 2.66667C12.8556 2.66667 13.0139 2.73056 13.1417 2.85833C13.2694 2.98611 13.3333 3.14444 13.3333 3.33333C13.3333 3.52222 13.2694 3.68056 13.1417 3.80833C13.0139 3.93611 12.8556 4 12.6667 4C12.4778 4 12.3194 3.93611 12.1917 3.80833Z" fill="var(--fill-0, #E20617)"/>
</g>
</svg>
