<svg preserveAspectRatio="none" width="100%" height="100%" overflow="visible" style="display: block;" viewBox="0 0 44.9442 21.6498" fill="none" xmlns="http://www.w3.org/2000/svg">
<g id="Group">
<path id="Vector" d="M7.50164 10.1135C8.92641 9.40219 9.56602 7.97953 9.56602 5.75273V4.97953C9.56578 1.63922 8.14125 0 4.82672 0H0V21.6497H5.03016C8.22844 21.6497 9.8857 19.8558 9.8857 16.5157V14.7527C9.8857 12.4641 9.21703 10.8248 7.50164 10.1135ZM3.19852 3.09281H4.73953C5.87344 3.09281 6.36773 3.77344 6.36773 5.31961V6.5257C6.36773 8.2575 5.6407 8.81437 4.44867 8.81437H3.19852V3.09258V3.09281ZM6.68766 16.4229C6.68766 18.0312 6.10617 18.5569 5.03039 18.5569H3.19852V11.9074H4.62328C6.07711 11.9074 6.68766 12.5259 6.68766 14.5364V16.4229Z" fill="var(--fill-0, #E20617)"/>
<path id="Vector_2" d="M14.2208 8.3121e-05L10.9611 21.6498H13.9006L14.4535 17.7219H18.3826L18.9354 21.6498H22.1661L18.9066 8.3121e-05H14.221H14.2208ZM14.8611 14.7838L16.4035 3.83516L17.9459 14.7838H14.8608H14.8611Z" fill="var(--fill-0, #E20617)"/>
<path id="Vector_3" d="M23.2594 3.0929H29.3363L23.2594 18.6188V21.6498H32.6217V18.5572H26.5451L32.6217 3.03102V8.3121e-05H23.2594V3.0929Z" fill="var(--fill-0, #E20617)"/>
<path id="Vector_4" d="M41.681 8.3121e-05H36.99L33.7268 21.6498H36.6696L37.2232 17.7219H41.1565L41.7101 21.6498H44.9442L41.681 8.3121e-05ZM37.631 14.7838L39.1753 3.83516L40.7194 14.7838H37.631Z" fill="var(--fill-0, #E20617)"/>
</g>
</svg>
