<svg preserveAspectRatio="none" width="100%" height="100%" overflow="visible" style="display: block;" viewBox="0 0 44.9011 7.47328" fill="none" xmlns="http://www.w3.org/2000/svg">
<g id="Group">
<path id="Vector" d="M3.30823e-06 0.0835705H1.81618C2.96438 0.0835705 3.52782 0.720368 3.52782 1.8892V5.58412C3.52782 6.75318 2.96414 7.38974 1.81618 7.38974H3.30823e-06V0.0835705ZM1.14821 1.12724V6.34584H1.79532C2.16071 6.34584 2.37985 6.15787 2.37985 5.63615V1.83693C2.37985 1.31498 2.16071 1.12724 1.79532 1.12724H1.14821Z" fill="var(--fill-0, #E20617)"/>
<path id="Vector_2" d="M5.4066 3.16266H6.98253V4.20633H5.4066V6.34594H7.38964V7.38961H4.25839V0.083438H7.38964V1.12711H5.4066V3.16242V3.16266Z" fill="var(--fill-0, #E20617)"/>
<path id="Vector_3" d="M9.8318 6.04336L10.7086 0.0836718H11.7628L10.6355 7.38984H8.92383L7.79649 0.0836718H8.955L9.8318 6.04336Z" fill="var(--fill-0, #E20617)"/>
<path id="Vector_4" d="M13.4433 3.16266H15.0192V4.20633H13.4433V6.34594H15.4263V7.38961H12.2951V0.083438H15.4263V1.12711H13.4433V3.16242V3.16266Z" fill="var(--fill-0, #E20617)"/>
<path id="Vector_5" d="M16.136 0.0836718H17.2842V6.34617H19.1733V7.38984H16.136V0.0836718Z" fill="var(--fill-0, #E20617)"/>
<path id="Vector_6" d="M19.5802 1.83703C19.5802 0.667971 20.1959 2.23559e-06 21.3232 2.23559e-06C22.4505 2.23559e-06 23.0662 0.667971 23.0662 1.83703V5.63625C23.0662 6.80531 22.4505 7.47328 21.3232 7.47328C20.1959 7.47328 19.5802 6.80531 19.5802 5.63625V1.83703ZM20.7284 5.70938C20.7284 6.23133 20.958 6.42961 21.3232 6.42961C21.6884 6.42961 21.918 6.23133 21.918 5.70938V1.76414C21.918 1.24219 21.6884 1.04391 21.3232 1.04391C20.958 1.04391 20.7284 1.24219 20.7284 1.76414V5.70938Z" fill="var(--fill-0, #E20617)"/>
<path id="Vector_7" d="M27.21 1.8893V2.83899C27.21 4.00805 26.6463 4.64461 25.4984 4.64461H24.9555V7.38961H23.8073V0.083438H25.4981C26.6463 0.083438 27.2098 0.720236 27.2098 1.88906L27.21 1.8893ZM24.9555 1.12735V3.60094H25.4984C25.8637 3.60094 26.062 3.43383 26.062 2.91211V1.81617C26.062 1.29422 25.8637 1.12735 25.4984 1.12735H24.9555Z" fill="var(--fill-0, #E20617)"/>
<path id="Vector_8" d="M30.1741 5.2711L30.9569 0.0836718H32.554V7.38984H31.4686V2.15039L30.6755 7.38984H29.5901L28.7341 2.22328V7.38984H27.7322V0.0836718H29.3292L30.1746 5.2711H30.1741Z" fill="var(--fill-0, #E20617)"/>
<path id="Vector_9" d="M34.5368 3.16266H36.1127V4.20633H34.5368V6.34594H36.5199V7.38961H33.3886V0.083438H36.5199V1.12711H34.5368V3.16242V3.16266Z" fill="var(--fill-0, #E20617)"/>
<path id="Vector_10" d="M38.2526 2.09813V7.38984H37.2192V0.0836718H38.6597L39.8391 4.45688V0.0836718H40.8619V7.38984H39.6825L38.2526 2.09813Z" fill="var(--fill-0, #E20617)"/>
<path id="Vector_11" d="M41.3525 0.0836718H44.9011V1.12734H43.7009V7.38984H42.5527V1.12734H41.3525V0.0836718Z" fill="var(--fill-0, #E20617)"/>
</g>
</svg>
