<svg preserveAspectRatio="none" width="100%" height="100%" overflow="visible" style="display: block;" viewBox="0 0 16 16" fill="none" xmlns="http://www.w3.org/2000/svg">
<g id="icon">
<path id="Vector" d="M8 14.6667C6.82222 14.6667 5.86111 14.4806 5.11667 14.1083C4.37222 13.7361 4 13.2556 4 12.6667C4 12.4556 4.04722 12.2611 4.14167 12.0833C4.23611 11.9056 4.37778 11.7389 4.56667 11.5833C4.72222 11.4722 4.89167 11.4278 5.075 11.45C5.25833 11.4722 5.40556 11.5611 5.51667 11.7167C5.62778 11.8722 5.66944 12.0417 5.64167 12.225C5.61389 12.4083 5.52222 12.5556 5.36667 12.6667C5.51111 12.8444 5.84444 13 6.36667 13.1333C6.88889 13.2667 7.43333 13.3333 8 13.3333C8.56667 13.3333 9.11111 13.2667 9.63333 13.1333C10.1556 13 10.4889 12.8444 10.6333 12.6667C10.4778 12.5556 10.3861 12.4083 10.3583 12.225C10.3306 12.0417 10.3722 11.8722 10.4833 11.7167C10.5944 11.5611 10.7417 11.4722 10.925 11.45C11.1083 11.4278 11.2778 11.4722 11.4333 11.5833C11.6222 11.7389 11.7639 11.9056 11.8583 12.0833C11.9528 12.2611 12 12.4556 12 12.6667C12 13.2556 11.6278 13.7361 10.8833 14.1083C10.1389 14.4806 9.17778 14.6667 8 14.6667ZM8.01667 11C9.11667 10.1889 9.94444 9.375 10.5 8.55833C11.0556 7.74167 11.3333 6.92222 11.3333 6.1C11.3333 4.96667 10.9722 4.11111 10.25 3.53333C9.52778 2.95556 8.77778 2.66667 8 2.66667C7.22222 2.66667 6.47222 2.95556 5.75 3.53333C5.02778 4.11111 4.66667 4.96667 4.66667 6.1C4.66667 6.84444 4.93889 7.61944 5.48333 8.425C6.02778 9.23055 6.87222 10.0889 8.01667 11ZM7.6 12.2833C7.46667 12.2389 7.34444 12.1722 7.23333 12.0833C5.92222 11.0389 4.94444 10.0194 4.3 9.025C3.65556 8.03056 3.33333 7.05556 3.33333 6.1C3.33333 5.31111 3.475 4.61944 3.75833 4.025C4.04167 3.43056 4.40556 2.93333 4.85 2.53333C5.29444 2.13333 5.79444 1.83333 6.35 1.63333C6.90556 1.43333 7.45556 1.33333 8 1.33333C8.54444 1.33333 9.09444 1.43333 9.65 1.63333C10.2056 1.83333 10.7056 2.13333 11.15 2.53333C11.5944 2.93333 11.9583 3.43056 12.2417 4.025C12.525 4.61944 12.6667 5.31111 12.6667 6.1C12.6667 7.05556 12.3444 8.03056 11.7 9.025C11.0556 10.0194 10.0778 11.0389 8.76667 12.0833C8.65556 12.1722 8.53333 12.2389 8.4 12.2833C8.26667 12.3278 8.13333 12.35 8 12.35C7.86667 12.35 7.73333 12.3278 7.6 12.2833ZM8 7.33333C8.36667 7.33333 8.68056 7.20278 8.94167 6.94167C9.20278 6.68056 9.33333 6.36667 9.33333 6C9.33333 5.63333 9.20278 5.31944 8.94167 5.05833C8.68056 4.79722 8.36667 4.66667 8 4.66667C7.63333 4.66667 7.31944 4.79722 7.05833 5.05833C6.79722 5.31944 6.66667 5.63333 6.66667 6C6.66667 6.36667 6.79722 6.68056 7.05833 6.94167C7.31944 7.20278 7.63333 7.33333 8 7.33333Z" fill="var(--fill-0, #002346)"/>
</g>
</svg>
