<svg preserveAspectRatio="none" width="100%" height="100%" overflow="visible" style="display: block;" viewBox="0 0 62 62" fill="none" xmlns="http://www.w3.org/2000/svg">
<g id="QR_code_for_mobile_English_Wikipedia 1">
<rect width="62" height="62" rx="8" fill="var(--fill-0, #F4F8FB)"/>
<path id="Vector" d="M6.70276 49.4324V43.5676H18.4325V55.2973H6.70276V49.4324ZM16.7568 49.4324V45.2432H8.37843V53.6216H16.7568V49.4324ZM10.0541 49.4324V46.9189H15.0811V51.9459H10.0541V49.4324ZM21.7838 54.4595V53.6216H20.1082V50.2703H21.7838V45.2432H23.4595V43.5676H20.1082V41.8919H13.4055V40.2162H15.0811V38.5405H11.7298V41.8919H10.0541V40.2162H6.70276V38.5405H10.0541V35.1892H8.37843V36.8649H6.70276V33.5135H10.0541V35.1892H11.7298V36.8649H13.4055V35.1892H15.0811V36.8649H18.4325V35.1892H16.7568V33.5135H11.7298V31.8378H16.7568V30.1622H11.7298V28.4865H10.0541V30.1622H6.70276V25.1351H8.37843V26.8108H18.4325V25.1351H16.7568V23.4595H13.4055V25.1351H11.7298V23.4595H8.37843V20.1081H11.7298V23.4595H13.4055V21.7838H16.7568V20.1081H18.4325V21.7838H16.7568V23.4595H18.4325V25.1351H20.1082V21.7838H21.7838V20.1081H20.1082V15.0811H23.4595V16.7568H25.1352V18.4324H23.4595V20.1081H25.1352V30.1622H21.7838V28.4865H20.1082V30.1622H18.4325V31.8378H16.7568V33.5135H18.4325V35.1892H20.1082V36.8649H23.4595V35.1892H21.7838V33.5135H20.1082V31.8378H23.4595V35.1892H25.1352V31.8378H26.8109V35.1892H28.4865V30.1622H30.1622V28.4865H31.8379V30.1622H30.1622V31.8378H31.8379V33.5135H36.8649V31.8378H35.1893V30.1622H33.5136V26.8108H31.8379V25.1351H33.5136V23.4595H35.1893V21.7838H33.5136V20.1081H31.8379V23.4595H30.1622V21.7838H28.4865V23.4595H26.8109V21.7838H28.4865V20.1081H26.8109V15.0811H25.1352V13.4054H26.8109V15.0811H28.4865V8.37837H30.1622V11.7297H33.5136V10.054H31.8379V6.7027H35.1893V8.37837H33.5136V10.054H36.8649V8.37837H38.5406V6.7027H41.892V11.7297H38.5406V10.054H36.8649V13.4054H38.5406V18.4324H40.2163V16.7568H41.892V25.1351H45.2433V23.4595H43.5676V20.1081H46.919V25.1351H50.2703V23.4595H48.5947V20.1081H50.2703V23.4595H51.946V21.7838H55.2974V25.1351H53.6217V23.4595H51.946V25.1351H50.2703V30.1622H51.946V31.8378H50.2703V33.5135H46.919V35.1892H45.2433V36.8649H41.892V35.1892H40.2163V33.5135H38.5406V36.8649H40.2163V38.5405H45.2433V40.2162H48.5947V38.5405H46.919V36.8649H48.5947V35.1892H50.2703V36.8649H51.946V38.5405H53.6217V35.1892H51.946V33.5135H55.2974V38.5405H53.6217V41.8919H55.2974V45.2432H53.6217V50.2703H55.2974V51.9459H50.2703V55.2973H45.2433V53.6216H48.5947V51.9459H45.2433V48.5946H43.5676V51.9459H41.892V53.6216H43.5676V55.2973H40.2163V50.2703H38.5406V53.6216H36.8649V51.9459H35.1893V45.2432H36.8649V50.2703H38.5406V45.2432H40.2163V41.8919H38.5406V40.2162H36.8649V38.5405H38.5406V36.8649H36.8649V35.1892H35.1893V41.8919H36.8649V43.5676H33.5136V46.9189H31.8379V50.2703H33.5136V51.9459H31.8379V53.6216H35.1893V55.2973H31.8379V53.6216H30.1622V51.9459H28.4865V55.2973H21.7838V54.4595ZM26.8109 51.9459V50.2703H28.4865V45.2432H25.1352V46.9189H26.8109V48.5946H23.4595V50.2703H21.7838V51.9459H23.4595V53.6216H26.8109V51.9459ZM50.2703 50.2703V48.5946H51.946V45.2432H53.6217V43.5676H51.946V38.5405H50.2703V43.5676H51.946V45.2432H50.2703V46.9189H48.5947V51.9459H50.2703V50.2703ZM41.892 49.4324V48.5946H40.2163V50.2703H41.892V49.4324ZM31.8379 46.0811V45.2432H30.1622V46.9189H31.8379V46.0811ZM46.919 44.4054V41.8919H41.892V46.9189H46.919V44.4054ZM43.5676 44.4054V43.5676H45.2433V45.2432H43.5676V44.4054ZM30.1622 42.7297V41.8919H33.5136V40.2162H30.1622V38.5405H28.4865V40.2162H30.1622V41.8919H26.8109V40.2162H25.1352V41.8919H23.4595V40.2162H21.7838V38.5405H20.1082V36.8649H18.4325V38.5405H16.7568V40.2162H18.4325V38.5405H20.1082V40.2162H21.7838V41.8919H23.4595V43.5676H30.1622V42.7297ZM25.1352 37.7027V36.8649H23.4595V38.5405H25.1352V37.7027ZM33.5136 36.8649V35.1892H30.1622V36.8649H31.8379V38.5405H33.5136V36.8649ZM43.5676 34.3514V33.5135H41.892V35.1892H43.5676V34.3514ZM46.919 32.6757V31.8378H48.5947V26.8108H46.919V28.4865H45.2433V30.1622H43.5676V28.4865H40.2163V26.8108H38.5406V25.1351H40.2163V20.1081H38.5406V18.4324H36.8649V16.7568H35.1893V18.4324H33.5136V13.4054H35.1893V15.0811H36.8649V13.4054H35.1893V11.7297H33.5136V13.4054H31.8379V18.4324H33.5136V20.1081H35.1893V18.4324H36.8649V23.4595H35.1893V25.1351H33.5136V26.8108H35.1893V30.1622H36.8649V28.4865H40.2163V30.1622H41.892V31.8378H45.2433V33.5135H46.919V32.6757ZM45.2433 31V30.1622H46.919V31.8378H45.2433V31ZM18.4325 29.3243V28.4865H20.1082V26.8108H18.4325V28.4865H16.7568V30.1622H18.4325V29.3243ZM23.4595 25.973V25.1351H21.7838V26.8108H23.4595V25.973ZM23.4595 17.5946V16.7568H21.7838V18.4324H23.4595V17.5946ZM30.1622 16.7568V15.0811H28.4865V18.4324H30.1622V16.7568ZM40.2163 9.21621V8.37837H38.5406V10.054H40.2163V9.21621ZM53.6217 54.4595V53.6216H55.2974V55.2973H53.6217V54.4595ZM53.6217 30.1622V28.4865H51.946V26.8108H53.6217V28.4865H55.2974V31.8378H53.6217V30.1622ZM6.70276 12.5676V6.7027H18.4325V18.4324H6.70276V12.5676ZM16.7568 12.5676V8.37837H8.37843V16.7568H16.7568V12.5676ZM10.0541 12.5676V10.054H15.0811V15.0811H10.0541V12.5676ZM43.5676 12.5676V6.7027H55.2974V18.4324H43.5676V12.5676ZM53.6217 12.5676V8.37837H45.2433V16.7568H53.6217V12.5676ZM46.919 12.5676V10.054H51.946V15.0811H46.919V12.5676ZM20.1082 12.5676V11.7297H21.7838V13.4054H20.1082V12.5676ZM23.4595 10.8919V10.054H21.7838V6.7027H23.4595V8.37837H25.1352V6.7027H26.8109V8.37837H25.1352V11.7297H23.4595V10.8919Z" fill="var(--fill-0, #002346)"/>
</g>
</svg>
